# xmcd
#
# Track frame offsets:
#	182
#	45175
#	75937
#	108957
#	132112
#	154162
#	194017
#	217342
#	241380
#	267572
#
# Disc length: 3921 seconds
# Revision: 0
# Processed by: cddbd v1.5.2PL0 Copyright (c) Steve Scherf et al.
# Submitted via: dBpowerAMP V12.0
#
DISCID=870f4f0a
DTITLE=Katia Ricciarelli - Stabat Mater
DYEAR=1982
DGENRE=Opera
TTITLE0=Introduzione. Andantino moderato. "Stabat mater dolorosa"
TTITLE1=Aria (Tenore). Allegretto maestoso. "Cujus animam gementem"
TTITLE2=Duetto (Soprano I/II). Largo. "Quis est homo"
TTITLE3=Aria (Basso). Allegretto maestoso. "Pro peccatis sue gentis"
TTITLE4=Coro (a capella) e Recitativo (Basso). Andante mosso. "Eja mater,fons amoris"
TTITLE5=Quartetto (Soli). Allegretto moderato. "Sancta mater, istud agas"
TTITLE6=Cavatina (Soprano II). Andante grazioso. "Fac, ut portem Christi mortem"
TTITLE7=Aria (Soprano I) e Coro. Andante maestoso. "Inflammatus et accencus"
TTITLE8=Quartetto (Coro a capella). Andante. "Quando corpus morietur"
TTITLE9=Finale. Allegro - Andantino moderato. "Amen. In sempiterna saecula"
EXTD=
EXTT0=
EXTT1=
EXTT2=
EXTT3=
EXTT4=
EXTT5=
EXTT6=
EXTT7=
EXTT8=
EXTT9=
PLAYORDER=
